<svg xmlns='http://www.w3.org/2000/svg'>
  <style>
    @import url('https://fonts.googleapis.com/css?family=Open+Sans:300,400,600,700,800');
    @import url('https://fonts.googleapis.com/css?family=Source+Code+Pro:300,400,500,700,900');
    text { font-family: 'Open Sans', sans-serif; font-weight: 600; font-size: 14px; }
    .title { font-weight: 800; font-size: 42px; }
    .code { font-weight: 600; font-family: 'Source Code Pro', monospace; }
  </style>
  <circle cx="150" cy="150" r="150" fill="#7bd389"/>
  <path d="M 150.0, 150.0 L 300.0 150.0 A 150.0 150.0  0 0 1 290.7015449669635 201.99110735413842 z" fill="#dd5e98"/>
  <path d="M 150.0, 150.0 L 290.7015449669635 201.99110735413842 A 150.0 150.0  0 0 1 268.9078057597133 241.438141546131 z" fill="#75b9be"/>
  <path d="M 150.0, 150.0 L 268.9078057597133 241.438141546131 A 150.0 150.0  0 0 1 236.60265723673865 272.4744045077826 z" fill="#ee7674"/>
  <path d="M 150.0, 150.0 L 236.60265723673865 272.4744045077826 A 150.0 150.0  0 0 1 214.52498037385993 285.4124326188441 z" fill="#546a76"/>
  <path d="M 150.0, 150.0 L 214.52498037385993 285.4124326188441 A 150.0 150.0  0 0 1 191.85310332381437 294.04276358833897 z" fill="#d0d6b5"/>
  <path d="M 150.0, 150.0 L 191.85310332381437 294.04276358833897 A 150.0 150.0  0 0 1 168.9084410823408 298.80346385698033 z" fill="#aa6da3"/>
  <path d="M 150.0, 150.0 L 168.9084410823408 298.80346385698033 A 150.0 150.0  0 0 1 148.58462287310627 299.993322209986 z" fill="#1a936f"/>
  <path d="M 150.0, 150.0 L 148.58462287310627 299.993322209986 A 150.0 150.0  0 0 1 132.95940910090403 299.02891753552274 z" fill="#f18701"/>
  <path d="M 150.0, 150.0 L 132.95940910090403 299.02891753552274 A 150.0 150.0  0 0 1 120.5605196899617 297.0826876252772 z" fill="#7678ed"/>
  <path d="M 150.0, 150.0 L 120.5605196899617 297.0826876252772 A 150.0 150.0  0 0 1 109.15215233403579 294.331054666202 z" fill="#2e86ab"/>
  <path d="M 150.0, 150.0 L 109.15215233403579 294.331054666202 A 150.0 150.0  0 0 1 300.0 149.9999987516432 z" fill="#7bd389"/>
</svg>