<svg xmlns='http://www.w3.org/2000/svg'>
  <style>
    @import url('https://fonts.googleapis.com/css?family=Open+Sans:300,400,600,700,800');
    @import url('https://fonts.googleapis.com/css?family=Source+Code+Pro:300,400,500,700,900');
    text { font-family: 'Open Sans', sans-serif; font-weight: 600; font-size: 14px; }
    .title { font-weight: 800; font-size: 42px; }
    .code { font-weight: 600; font-family: 'Source Code Pro', monospace; }
  </style>
  <circle cx="150" cy="150" r="150" fill="#7bd389"/>
  <path d="M 150.0, 150.0 L 300.0 150.0 A 150.0 150.0  0 0 1 293.30431233972115 194.31561874598665 z" fill="#dd5e98"/>
  <path d="M 150.0, 150.0 L 293.30431233972115 194.31561874598665 A 150.0 150.0  0 0 1 275.0708004505253 232.80878500898845 z" fill="#75b9be"/>
  <path d="M 150.0, 150.0 L 275.0708004505253 232.80878500898845 A 150.0 150.0  0 0 1 255.06728941870625 257.0554281398464 z" fill="#ee7674"/>
  <path d="M 150.0, 150.0 L 255.06728941870625 257.0554281398464 A 150.0 150.0  0 0 1 230.44996944898008 276.6009574041925 z" fill="#546a76"/>
  <path d="M 150.0, 150.0 L 230.44996944898008 276.6009574041925 A 150.0 150.0  0 0 1 214.72043271661335 285.3191249933812 z" fill="#d0d6b5"/>
  <path d="M 150.0, 150.0 L 214.72043271661335 285.3191249933812 A 150.0 150.0  0 0 1 198.06057637578198 292.0921567097481 z" fill="#aa6da3"/>
  <path d="M 150.0, 150.0 L 198.06057637578198 292.0921567097481 A 150.0 150.0  0 0 1 180.70987643703643 296.8226940538211 z" fill="#1a936f"/>
  <path d="M 150.0, 150.0 L 180.70987643703643 296.8226940538211 A 150.0 150.0  0 0 1 162.91773939684262 299.4427382273065 z" fill="#f18701"/>
  <path d="M 150.0, 150.0 L 162.91773939684262 299.4427382273065 A 150.0 150.0  0 0 1 144.9399171602821 299.9146275773488 z" fill="#7678ed"/>
  <path d="M 150.0, 150.0 L 144.9399171602821 299.9146275773488 A 150.0 150.0  0 0 1 129.2601612109656 298.55927802397554 z" fill="#2e86ab"/>
  <path d="M 150.0, 150.0 L 129.2601612109656 298.55927802397554 A 150.0 150.0  0 0 1 299.99999999999363 150.0000436924865 z" fill="#7bd389"/>
</svg>