<svg xmlns='http://www.w3.org/2000/svg'>
  <style>
    @import url('https://fonts.googleapis.com/css?family=Open+Sans:300,400,600,700,800');
    @import url('https://fonts.googleapis.com/css?family=Source+Code+Pro:300,400,500,700,900');
    text { font-family: 'Open Sans', sans-serif; font-weight: 600; font-size: 14px; }
    .title { font-weight: 800; font-size: 42px; }
    .code { font-weight: 600; font-family: 'Source Code Pro', monospace; }
  </style>
  <circle cx="150" cy="150" r="150" fill="#7bd389"/>
  <path d="M 150.0, 150.0 L 300.0 150.0 A 150.0 150.0  0 0 1 263.7275729489478 247.80613043742076 z" fill="#dd5e98"/>
  <path d="M 150.0, 150.0 L 263.7275729489478 247.80613043742076 A 150.0 150.0  0 0 1 233.12246766854855 274.86254590024623 z" fill="#75b9be"/>
  <path d="M 150.0, 150.0 L 233.12246766854855 274.86254590024623 A 150.0 150.0  0 0 1 196.3525491562421 292.658477444273 z" fill="#ee7674"/>
  <path d="M 150.0, 150.0 L 196.3525491562421 292.658477444273 A 150.0 150.0  0 0 1 164.3202112740824 299.31487383735634 z" fill="#546a76"/>
  <path d="M 150.0, 150.0 L 164.3202112740824 299.31487383735634 A 150.0 150.0  0 0 1 139.7636391865961 299.6503154600678 z" fill="#d0d6b5"/>
  <path d="M 150.0, 150.0 L 139.7636391865961 299.6503154600678 A 150.0 150.0  0 0 1 115.48146423989988 295.97421241088676 z" fill="#aa6da3"/>
  <path d="M 150.0, 150.0 L 115.48146423989988 295.97421241088676 A 150.0 150.0  0 0 1 92.12459738750508 288.3851067580671 z" fill="#1a936f"/>
  <path d="M 150.0, 150.0 L 92.12459738750508 288.3851067580671 A 150.0 150.0  0 0 1 70.31914566089893 277.08643299656717 z" fill="#f18701"/>
  <path d="M 150.0, 150.0 L 70.31914566089893 277.08643299656717 A 150.0 150.0  0 0 1 56.934920141435924 267.6388154943728 z" fill="#7678ed"/>
  <path d="M 150.0, 150.0 L 56.934920141435924 267.6388154943728 A 150.0 150.0  0 0 1 44.66083681061431 256.78792393599554 z" fill="#2e86ab"/>
  <path d="M 150.0, 150.0 L 44.66083681061431 256.78792393599554 A 150.0 150.0  0 0 1 299.99999999999795 149.9999750328648 z" fill="#7bd389"/>
</svg>