<svg xmlns='http://www.w3.org/2000/svg'>
  <style>
    @import url('https://fonts.googleapis.com/css?family=Open+Sans:300,400,600,700,800');
    @import url('https://fonts.googleapis.com/css?family=Source+Code+Pro:300,400,500,700,900');
    text { font-family: 'Open Sans', sans-serif; font-weight: 600; font-size: 14px; }
    .title { font-weight: 800; font-size: 42px; }
    .code { font-weight: 600; font-family: 'Source Code Pro', monospace; }
  </style>
  <line x1="427" x2="326" y1="225" y2="400" stroke="#000000" stroke-width="2px"/>
  <line x1="427" x2="123" y1="225" y2="400" stroke="#000000" stroke-width="2px"/>
  <line x1="427" x2="22" y1="225" y2="225" stroke="#000000" stroke-width="2px"/>
  <line x1="427" x2="123" y1="225" y2="49" stroke="#000000" stroke-width="2px"/>
  <g>
    <circle cx="427" cy="225" r="15" stroke-width="4px" stroke-opacity="1" fill="#fff" stroke="#424242"/>
    <text x="427" y="229" text-anchor="middle" class="code" fill="000">D</text>
  </g>
  <line x1="326" x2="123" y1="400" y2="400" stroke="#000000" stroke-width="2px"/>
  <line x1="326" x2="22" y1="400" y2="225" stroke="#000000" stroke-width="2px"/>
  <g>
    <circle cx="326" cy="400" r="15" stroke-width="4px" stroke-opacity="1" fill="#fff" stroke="#424242"/>
    <text x="326" y="404" text-anchor="middle" class="code" fill="000">A</text>
  </g>
  <line x1="123" x2="22" y1="400" y2="225" stroke="#000000" stroke-width="2px"/>
  <line x1="123" x2="123" y1="400" y2="49" stroke="#000000" stroke-width="2px"/>
  <g>
    <circle cx="123" cy="400" r="15" stroke-width="4px" stroke-opacity="1" fill="#fff" stroke="#424242"/>
    <text x="123" y="404" text-anchor="middle" class="code" fill="000">E</text>
  </g>
  <g>
    <circle cx="22" cy="225" r="15" stroke-width="4px" stroke-opacity="1" fill="#fff" stroke="#424242"/>
    <text x="22" y="229" text-anchor="middle" class="code" fill="000">C</text>
  </g>
  <g>
    <circle cx="123" cy="49" r="15" stroke-width="4px" stroke-opacity="1" fill="#fff" stroke="#424242"/>
    <text x="123" y="53" text-anchor="middle" class="code" fill="000">B</text>
  </g>
  <g>
    <circle cx="326" cy="49" r="15" stroke-width="4px" stroke-opacity="1" fill="#fff" stroke="#424242"/>
    <text x="326" y="53" text-anchor="middle" class="code" fill="000">F</text>
  </g>
</svg>