<svg xmlns='http://www.w3.org/2000/svg'>
  <style>
    @import url('https://fonts.googleapis.com/css?family=Open+Sans:300,400,600,700,800');
    @import url('https://fonts.googleapis.com/css?family=Source+Code+Pro:300,400,500,700,900');
    text { font-family: 'Open Sans', sans-serif; font-weight: 600; font-size: 14px; }
    .title { font-weight: 800; font-size: 42px; }
    .code { font-weight: 600; font-family: 'Source Code Pro', monospace; }
  </style>
  <circle cx="150" cy="150" r="150" fill="#7bd389"/>
  <path d="M 150.0, 150.0 L 300.0 150.0 A 150.0 150.0  0 0 1 285.94616594518396 213.3927437866867 z" fill="#dd5e98"/>
  <path d="M 150.0, 150.0 L 285.94616594518396 213.3927437866867 A 150.0 150.0  0 0 1 256.06601364709593 256.06602070886817 z" fill="#75b9be"/>
  <path d="M 150.0, 150.0 L 256.06601364709593 256.06602070886817 A 150.0 150.0  0 0 1 213.39273473552308 285.9461701658109 z" fill="#ee7674"/>
  <path d="M 150.0, 150.0 L 213.39273473552308 285.9461701658109 A 150.0 150.0  0 0 1 176.04722173247387 297.7211638189306 z" fill="#546a76"/>
  <path d="M 150.0, 150.0 L 176.04722173247387 297.7211638189306 A 150.0 150.0  0 0 1 143.457084412188 299.85723291056314 z" fill="#d0d6b5"/>
  <path d="M 150.0, 150.0 L 143.457084412188 299.85723291056314 A 150.0 150.0  0 0 1 123.952765973612 297.7211616511818 z" fill="#aa6da3"/>
  <path d="M 150.0, 150.0 L 123.952765973612 297.7211616511818 A 150.0 150.0  0 0 1 104.89412293088506 293.05754035990515 z" fill="#1a936f"/>
  <path d="M 150.0, 150.0 L 104.89412293088506 293.05754035990515 A 150.0 150.0  0 0 1 86.60725395052245 285.94616489002715 z" fill="#f18701"/>
  <path d="M 150.0, 150.0 L 86.60725395052245 285.94616489002715 A 150.0 150.0  0 0 1 69.40505243085607 276.50871284748314 z" fill="#7678ed"/>
  <path d="M 150.0, 150.0 L 69.40505243085607 276.50871284748314 A 150.0 150.0  0 0 1 53.581852809238654 264.906661653277 z" fill="#2e86ab"/>
  <path d="M 150.0, 150.0 L 53.581852809238654 264.906661653277 A 150.0 150.0  0 0 1 299.99999999999983 150.00000749014046 z" fill="#7bd389"/>
</svg>