<svg xmlns='http://www.w3.org/2000/svg'>
  <style>
    @import url('https://fonts.googleapis.com/css?family=Open+Sans:300,400,600,700,800');
    @import url('https://fonts.googleapis.com/css?family=Source+Code+Pro:300,400,500,700,900');
    text { font-family: 'Open Sans', sans-serif; font-weight: 600; font-size: 14px; }
    .title { font-weight: 800; font-size: 42px; }
    .code { font-weight: 600; font-family: 'Source Code Pro', monospace; }
  </style>
  <circle cx="150" cy="150" r="150" fill="#7bd389"/>
  <path d="M 150.0, 150.0 L 300.0 150.0 A 150.0 150.0  0 0 1 276.36749581952756 230.81618649937448 z" fill="#dd5e98"/>
  <path d="M 150.0, 150.0 L 276.36749581952756 230.81618649937448 A 150.0 150.0  0 0 1 260.39117879330786 251.55681978392164 z" fill="#75b9be"/>
  <path d="M 150.0, 150.0 L 260.39117879330786 251.55681978392164 A 150.0 150.0  0 0 1 244.4059555059406 266.5654990338495 z" fill="#ee7674"/>
  <path d="M 150.0, 150.0 L 244.4059555059406 266.5654990338495 A 150.0 150.0  0 0 1 226.92741687313773 278.7717846938004 z" fill="#546a76"/>
  <path d="M 150.0, 150.0 L 226.92741687313773 278.7717846938004 A 150.0 150.0  0 0 1 211.25173509233997 286.9241576500575 z" fill="#d0d6b5"/>
  <path d="M 150.0, 150.0 L 211.25173509233997 286.9241576500575 A 150.0 150.0  0 0 1 196.46849330292062 292.62075280321733 z" fill="#aa6da3"/>
  <path d="M 150.0, 150.0 L 196.46849330292062 292.62075280321733 A 150.0 150.0  0 0 1 181.7629392554093 296.59848460968885 z" fill="#1a936f"/>
  <path d="M 150.0, 150.0 L 181.7629392554093 296.59848460968885 A 150.0 150.0  0 0 1 166.72976718948811 299.06413012453913 z" fill="#f18701"/>
  <path d="M 150.0, 150.0 L 166.72976718948811 299.06413012453913 A 150.0 150.0  0 0 1 152.7431559964557 299.9749148863873 z" fill="#7678ed"/>
  <path d="M 150.0, 150.0 L 152.7431559964557 299.9749148863873 A 150.0 150.0  0 0 1 140.55708890003874 299.7024763654838 z" fill="#2e86ab"/>
  <path d="M 150.0, 150.0 L 140.55708890003874 299.7024763654838 A 150.0 150.0  0 0 1 300.0 149.99999750328647 z" fill="#7bd389"/>
</svg>