<svg xmlns='http://www.w3.org/2000/svg'>
  <style>
    @import url('https://fonts.googleapis.com/css?family=Open+Sans:300,400,600,700,800');
    @import url('https://fonts.googleapis.com/css?family=Source+Code+Pro:300,400,500,700,900');
    text { font-family: 'Open Sans', sans-serif; font-weight: 600; font-size: 14px; }
    .title { font-weight: 800; font-size: 42px; }
    .code { font-weight: 600; font-family: 'Source Code Pro', monospace; }
  </style>
  <circle cx="150" cy="150" r="150" fill="#7bd389"/>
  <path d="M 150.0, 150.0 L 300.0 150.0 A 150.0 150.0  0 0 1 294.5090012801561 190.21378555933092 z" fill="#dd5e98"/>
  <path d="M 150.0, 150.0 L 294.5090012801561 190.21378555933092 A 150.0 150.0  0 0 1 279.477655646383 225.73332614058785 z" fill="#75b9be"/>
  <path d="M 150.0, 150.0 L 279.477655646383 225.73332614058785 A 150.0 150.0  0 0 1 262.8458470816626 248.8221371779725 z" fill="#ee7674"/>
  <path d="M 150.0, 150.0 L 262.8458470816626 248.8221371779725 A 150.0 150.0  0 0 1 242.15304121945707 268.3546238809665 z" fill="#546a76"/>
  <path d="M 150.0, 150.0 L 242.15304121945707 268.3546238809665 A 150.0 150.0  0 0 1 227.0471971506468 278.7001531126881 z" fill="#d0d6b5"/>
  <path d="M 150.0, 150.0 L 227.0471971506468 278.7001531126881 A 150.0 150.0  0 0 1 210.7934645586118 287.12824168259726 z" fill="#aa6da3"/>
  <path d="M 150.0, 150.0 L 210.7934645586118 287.12824168259726 A 150.0 150.0  0 0 1 193.63399985905494 293.5133236194465 z" fill="#1a936f"/>
  <path d="M 150.0, 150.0 L 193.63399985905494 293.5133236194465 A 150.0 150.0  0 0 1 177.82721011612392 297.3962223978386 z" fill="#f18701"/>
  <path d="M 150.0, 150.0 L 177.82721011612392 297.3962223978386 A 150.0 150.0  0 0 1 163.72101742977188 299.3711273328681 z" fill="#7678ed"/>
  <path d="M 150.0, 150.0 L 163.72101742977188 299.3711273328681 A 150.0 150.0  0 0 1 149.491100852504 299.99913673637485 z" fill="#2e86ab"/>
  <path d="M 150.0, 150.0 L 149.491100852504 299.99913673637485 A 150.0 150.0  0 0 1 299.99999999999704 149.99997003943767 z" fill="#7bd389"/>
</svg>