<svg xmlns='http://www.w3.org/2000/svg'>
  <style>
    @import url('https://fonts.googleapis.com/css?family=Open+Sans:300,400,600,700,800');
    @import url('https://fonts.googleapis.com/css?family=Source+Code+Pro:300,400,500,700,900');
    text { font-family: 'Open Sans', sans-serif; font-weight: 600; font-size: 14px; }
    .title { font-weight: 800; font-size: 42px; }
    .code { font-weight: 600; font-family: 'Source Code Pro', monospace; }
  </style>
  <circle cx="150" cy="150" r="150" fill="#7bd389"/>
  <path d="M 150.0, 150.0 L 300.0 150.0 A 150.0 150.0  0 0 1 287.0318166153803 211.0105010230926 z" fill="#dd5e98"/>
  <path d="M 150.0, 150.0 L 287.0318166153803 211.0105010230926 A 150.0 150.0  0 0 1 269.2681169506694 240.96766611847005 z" fill="#75b9be"/>
  <path d="M 150.0, 150.0 L 269.2681169506694 240.96766611847005 A 150.0 150.0  0 0 1 250.369589098409 261.47172549223654 z" fill="#ee7674"/>
  <path d="M 150.0, 150.0 L 250.369589098409 261.47172549223654 A 150.0 150.0  0 0 1 228.002418478521 278.12346666985593 z" fill="#546a76"/>
  <path d="M 150.0, 150.0 L 228.002418478521 278.12346666985593 A 150.0 150.0  0 0 1 206.19098901238684 289.07757818501807 z" fill="#d0d6b5"/>
  <path d="M 150.0, 150.0 L 206.19098901238684 289.07757818501807 A 150.0 150.0  0 0 1 182.89179444016855 296.3493418451402 z" fill="#aa6da3"/>
  <path d="M 150.0, 150.0 L 182.89179444016855 296.3493418451402 A 150.0 150.0  0 0 1 162.20380202965762 299.50273313896616 z" fill="#1a936f"/>
  <path d="M 150.0, 150.0 L 162.20380202965762 299.50273313896616 A 150.0 150.0  0 0 1 141.27827649425848 299.74622378908055 z" fill="#f18701"/>
  <path d="M 150.0, 150.0 L 141.27827649425848 299.74622378908055 A 150.0 150.0  0 0 1 123.9527745793519 297.7211631686061 z" fill="#7678ed"/>
  <path d="M 150.0, 150.0 L 123.9527745793519 297.7211631686061 A 150.0 150.0  0 0 1 106.9795166878867 293.69842732470033 z" fill="#2e86ab"/>
  <path d="M 150.0, 150.0 L 106.9795166878867 293.69842732470033 A 150.0 150.0  0 0 1 299.99999999999926 149.99998501971882 z" fill="#7bd389"/>
</svg>