<svg xmlns='http://www.w3.org/2000/svg' style='background: red;'>
  <style>
    @import url('https://fonts.googleapis.com/css?family=Open+Sans:300,400,600,700,800');
    @import url('https://fonts.googleapis.com/css?family=Source+Code+Pro:300,400,500,700,900');
    text { font-family: 'Open Sans', sans-serif; font-weight: 600; font-size: 14px; }
    .title { font-weight: 800; font-size: 42px; }
    .code { font-weight: 600; font-family: 'Source Code Pro', monospace; }
  </style>
  <line x1="436" x2="228" y1="20" y2="53" stroke="#000000" stroke-width="2px"/>
  <line x1="228" x2="124" y1="53" y2="86" stroke="#000000" stroke-width="2px"/>
  <line x1="124" x2="72" y1="86" y2="119" stroke="#000000" stroke-width="2px"/>
  <line x1="72" x2="46" y1="119" y2="152" stroke="#000000" stroke-width="2px"/>
  <line x1="46" x2="33" y1="152" y2="185" stroke="#000000" stroke-width="2px"/>
  <g>
    <circle cx="33" cy="185" r="13" stroke-width="4px" stroke-opacity="1" fill="#d36060" stroke="#424242"/>
    <text x="33" y="189" text-anchor="middle" class="code" fill="#fff">O</text>
  </g>
  <line x1="46" x2="59" y1="152" y2="185" stroke="#000000" stroke-width="2px"/>
  <g>
    <circle cx="59" cy="185" r="13" stroke-width="4px" stroke-opacity="1" fill="#d36060" stroke="#424242"/>
    <text x="59" y="189" text-anchor="middle" class="code" fill="#fff">M</text>
  </g>
  <g>
    <circle cx="46" cy="152" r="13" stroke-width="4px" stroke-opacity="1" fill="#011627" stroke="#424242"/>
    <text x="46" y="156" text-anchor="middle" class="code" fill="#fff">N</text>
  </g>
  <line x1="72" x2="98" y1="119" y2="152" stroke="#000000" stroke-width="2px"/>
  <g>
    <circle cx="98" cy="152" r="13" stroke-width="4px" stroke-opacity="1" fill="#011627" stroke="#424242"/>
    <text x="98" y="156" text-anchor="middle" class="code" fill="#fff">K</text>
  </g>
  <g>
    <circle cx="72" cy="119" r="13" stroke-width="4px" stroke-opacity="1" fill="#d36060" stroke="#424242"/>
    <text x="72" y="123" text-anchor="middle" class="code" fill="#fff">L</text>
  </g>
  <line x1="124" x2="176" y1="86" y2="119" stroke="#000000" stroke-width="2px"/>
  <g>
    <circle cx="176" cy="119" r="13" stroke-width="4px" stroke-opacity="1" fill="#011627" stroke="#424242"/>
    <text x="176" y="123" text-anchor="middle" class="code" fill="#fff">I</text>
  </g>
  <g>
    <circle cx="124" cy="86" r="13" stroke-width="4px" stroke-opacity="1" fill="#011627" stroke="#424242"/>
    <text x="124" y="90" text-anchor="middle" class="code" fill="#fff">J</text>
  </g>
  <line x1="228" x2="332" y1="53" y2="86" stroke="#000000" stroke-width="2px"/>
  <line x1="332" x2="280" y1="86" y2="119" stroke="#000000" stroke-width="2px"/>
  <g>
    <circle cx="280" cy="119" r="13" stroke-width="4px" stroke-opacity="1" fill="#011627" stroke="#424242"/>
    <text x="280" y="123" text-anchor="middle" class="code" fill="#fff">G</text>
  </g>
  <line x1="332" x2="384" y1="86" y2="119" stroke="#000000" stroke-width="2px"/>
  <g>
    <circle cx="384" cy="119" r="13" stroke-width="4px" stroke-opacity="1" fill="#011627" stroke="#424242"/>
    <text x="384" y="123" text-anchor="middle" class="code" fill="#fff">E</text>
  </g>
  <g>
    <circle cx="332" cy="86" r="13" stroke-width="4px" stroke-opacity="1" fill="#011627" stroke="#424242"/>
    <text x="332" y="90" text-anchor="middle" class="code" fill="#fff">F</text>
  </g>
  <g>
    <circle cx="228" cy="53" r="13" stroke-width="4px" stroke-opacity="1" fill="#d36060" stroke="#424242"/>
    <text x="228" y="57" text-anchor="middle" class="code" fill="#fff">H</text>
  </g>
  <line x1="436" x2="644" y1="20" y2="53" stroke="#000000" stroke-width="2px"/>
  <line x1="644" x2="540" y1="53" y2="86" stroke="#000000" stroke-width="2px"/>
  <g>
    <circle cx="540" cy="86" r="13" stroke-width="4px" stroke-opacity="1" fill="#011627" stroke="#424242"/>
    <text x="540" y="90" text-anchor="middle" class="code" fill="#fff">C</text>
  </g>
  <line x1="644" x2="748" y1="53" y2="86" stroke="#000000" stroke-width="2px"/>
  <g>
    <circle cx="748" cy="86" r="13" stroke-width="4px" stroke-opacity="1" fill="#011627" stroke="#424242"/>
    <text x="748" y="90" text-anchor="middle" class="code" fill="#fff">A</text>
  </g>
  <g>
    <circle cx="644" cy="53" r="13" stroke-width="4px" stroke-opacity="1" fill="#011627" stroke="#424242"/>
    <text x="644" y="57" text-anchor="middle" class="code" fill="#fff">B</text>
  </g>
  <g>
    <circle cx="436" cy="20" r="13" stroke-width="4px" stroke-opacity="1" fill="#011627" stroke="#424242"/>
    <text x="436" y="24" text-anchor="middle" class="code" fill="#fff">D</text>
  </g>
</svg>